0
SECTION
2
HEADER
999
Generator: TFPDxfWriteBridge
999
By jmpessoa@hotmail.com
9
$DIMASZ
40
0.1800
9
$DIMTSZ
40
0
9
$DIMGAP
40
0.0900
9
$DIMEXO
40
0.0625
9
$DIMDLI
40
0.38
9
$DIMDLE
40
0.0
9
$DIMEXE
40
0.1800
9
$DIMTXT
40
0.1800
9
$DIMTXTDIRECTION
70
0
9
$DIMTIH
70
1
9
$DIMTAD
70
0
9
$DIMCLRD
70
256
9
$DIMCLRE
70
256
9
$DIMCLRT
70
256
9
$DIMASO
70
1
9
$DIMASSOC
280
2
9
$DIMSHO
70
0
9
$DIMLUNIT
70
2
9
$DIMDEC
70
4
9
$DIMADEC
70
2
9
$INSBASE
10
0.0
20
0.0
30
0.0
9
$EXTMIN
10
0.0
20
0.0
9
$EXTMAX
10
3200.0
20
3200.0
9
$LINMIN
10
0.0
20
0.0
9
$LINMAX
10
3200.0
20
3200.0
0
ENDSEC
0
SECTION
2
TABLES
0
TABLE
2
LTYPE
70
7
100
AcDbSymbolTable
100
AcDbLTypeTable
0
LTYPE
2
CONTINUOUS
100
AcDbSymbolTableRecord
100
AcDbLinetypeTableRecord
3
____________
72
65
73
0
40
0.000
70
0
0
LTYPE
2
HIDDEN
100
AcDbSymbolTableRecord
100
AcDbLinetypeTableRecord
3
__ __ __ 
72
65
73
2
40
0.375
49
0.250
49
-0.125
70
0
0
LTYPE
2
CENTER
100
AcDbSymbolTableRecord
100
AcDbLinetypeTableRecord
3
____ _ ____ _ 
72
65
73
4
40
2.000
49
1.250
49
-0.250
49
0.250
49
-0.250
70
0
0
LTYPE
2
DOT
100
AcDbSymbolTableRecord
100
AcDbLinetypeTableRecord
3
. . . . . 
72
65
73
2
40
0.250
49
0.000
49
-0.250
70
0
0
LTYPE
2
DASHDOT
100
AcDbSymbolTableRecord
100
AcDbLinetypeTableRecord
3
__ . __ . 
72
65
73
4
40
1.000
49
0.500
49
-0.250
49
0.000
49
-0.250
70
0
0
LTYPE
2
DIVIDE
100
AcDbSymbolTableRecord
100
AcDbLinetypeTableRecord
3
____ . . ____ . . 
72
65
73
6
40
1.250
49
0.500
49
-0.250
49
0.000
49
-0.250
49
0.000
49
-0.250
70
0
0
LTYPE
2
BORDER
100
AcDbSymbolTableRecord
100
AcDbLinetypeTableRecord
3
__ __ . __ __ . 
72
65
73
6
40
1.750
49
0.500
49
-0.250
49
0.500
49
-0.250
49
0.000
49
-0.250
70
0
0
ENDTAB
0
TABLE
2
STYLE
70
2
100
AcDbSymbolTable
100
AcDbStyleTable
0
STYLE
2
DEFAULT
71
0
40
0.00
42
1.00
50
0.00
41
1.00
3
ARIAL.TTF
100
AcDbSymbolTableRecord
100
AcDbTextStyleTableRecord
70
0
0
STYLE
2
ISOCPEUR
71
0
40
0.00
42
1.00
50
0.00
41
1.00
3
isocpeur.ttf
100
AcDbSymbolTableRecord
100
AcDbTextStyleTableRecord
70
0
0
ENDTAB
0
TABLE
2
LAYER
70
8
100
AcDbSymbolTable
100
AcDbLayerTable
0
LAYER
100
AcDbSymbolTableRecord
100
AcDbLayerTableRecord
2
0
70
0
62
7
6
CONTINUOUS
0
LAYER
100
AcDbSymbolTableRecord
100
AcDbLayerTableRecord
2
HIDDEN_YELLOW
70
0
62
2
6
HIDDEN
0
LAYER
100
AcDbSymbolTableRecord
100
AcDbLayerTableRecord
2
CENTER_RED
70
0
62
1
6
CENTER
0
LAYER
100
AcDbSymbolTableRecord
100
AcDbLayerTableRecord
2
DOT_GREEN
70
0
62
3
6
DOT
0
LAYER
100
AcDbSymbolTableRecord
100
AcDbLayerTableRecord
2
DASHDOT_CYAN
70
0
62
4
6
DASHDOT
0
LAYER
100
AcDbSymbolTableRecord
100
AcDbLayerTableRecord
2
DIVIDE_BLUE
70
0
62
5
6
DIVIDE
0
LAYER
100
AcDbSymbolTableRecord
100
AcDbLayerTableRecord
2
BORDER_MAGENTA
70
0
62
6
6
BORDER
0
LAYER
100
AcDbSymbolTableRecord
100
AcDbLayerTableRecord
2
CONTINUOUS_GRAY
70
0
62
8
6
CONTINUOUS
0
ENDTAB
0
TABLE
2
DIMSTYLE
70
2
100
AcDbSymbolTable
100
AcDbDimStyleTable
0
DIMSTYLE
100
AcDbSymbolTableRecord
100
AcDbDimStyleTableRecord
2
GENERIC
70
0
77
0
176
256
177
256
178
256
41
0.18
46
0.00
44
0.18
42
0.06
147
0.09
140
0.18
3

4

5

6

7

40
1.0
43
0.38
45
0.0
47
0.0
48
0.0
141
0.09
142
0.0
143
25.39999
144
1.0
145
0.0
146
1.0
71
0
72
0
73
1
74
1
75
0
76
0
78
0
170
0
171
2
172
0
173
0
174
0
175
0
0
DIMSTYLE
100
AcDbSymbolTableRecord
100
AcDbDimStyleTableRecord
2
CUSTOM
70
0
77
0
176
3
177
3
178
3
41
0.18
46
0.00
44
0.18
42
0.06
147
0.09
140
0.18
3

4

5

6

7

40
1.0
43
0.38
45
0.0
47
0.0
48
0.0
141
0.09
142
0.0
143
25.39999
144
1.0
145
0.0
146
1.0
71
0
72
0
73
1
74
1
75
0
76
0
78
0
170
0
171
2
172
0
173
0
174
0
175
0
0
ENDTAB
0
ENDSEC
0
SECTION
2
BLOCKS
0
BLOCK
100
AcDbEntity
8
0
100
AcDbBlockBegin
2
Blk1
70
64
10
0.00
20
0.00
30
0.0
0
TEXT
100
AcDbEntity
8
0
62
256
6
BYLAYER
100
AcDbText
10
8.00
20
4.00
30
0.00
1
Hello World!
7
GENERIC
40
0.25
50
0.00
0
ENDBLK
100
AcDbEntity
100
AcDbBlockEnd
0
BLOCK
100
AcDbEntity
8
0
100
AcDbBlockBegin
2
*D1
70
1
10
0.00
20
0.00
30
0.0
0
LINE
100
AcDbEntity
8
0
62
256
6
BYLAYER
39
0.00
100
AcDbLine
10
5.79
20
2.82
30
0.00
11
6.21
21
5.18
31
0.00
0
SOLID
100
AcDbEntity
8
0
62
256
6
BYLAYER
39
0.00
100
AcDbTrace
10
5.88
20
2.98
30
0.0
11
5.76
21
3.01
31
0.0
12
5.79
22
2.82
32
0.0
13
5.79
23
2.82
33
0.0
0
SOLID
100
AcDbEntity
8
0
62
256
6
BYLAYER
39
0.00
100
AcDbTrace
10
6.12
20
5.02
30
0.0
11
6.24
21
4.99
31
0.0
12
6.21
22
5.18
32
0.0
13
6.21
23
5.18
33
0.0
0
TEXT
100
AcDbEntity
8
0
62
256
6
BYLAYER
100
AcDbText
10
6.00
20
4.00
30
0.00
1
2.40
7
GENERIC
40
0.18
50
80.00
0
ENDBLK
100
AcDbEntity
100
AcDbBlockEnd
0
BLOCK
100
AcDbEntity
8
0
100
AcDbBlockBegin
2
*D2
70
1
10
0.00
20
0.00
30
0.0
0
ARC
100
AcDbEntity
8
0
62
256
6
BYLAYER
39
0.00
100
AcDbCircle
10
10.00
20
6.00
30
0.00
40
1.80
100
AcDbArc
50
10.00
51
80.00
0
SOLID
100
AcDbEntity
8
0
62
256
6
BYLAYER
39
0.00
100
AcDbTrace
10
11.68
20
6.48
30
0.0
11
11.80
21
6.50
31
0.0
12
11.77
22
6.31
32
0.0
13
11.77
23
6.31
33
0.0
0
SOLID
100
AcDbEntity
8
0
62
256
6
BYLAYER
39
0.00
100
AcDbTrace
10
10.50
20
7.80
30
0.0
11
10.48
21
7.68
31
0.0
12
10.31
22
7.77
32
0.0
13
10.31
23
7.77
33
0.0
0
LINE
100
AcDbEntity
8
0
62
256
6
BYLAYER
39
0.00
100
AcDbLine
10
11.24
20
6.22
30
0.00
11
11.83
21
6.32
31
0.00
0
LINE
100
AcDbEntity
8
0
62
256
6
BYLAYER
39
0.00
100
AcDbLine
10
10.22
20
7.24
30
0.00
11
10.32
21
7.83
31
0.00
0
TEXT
100
AcDbEntity
8
0
62
256
6
BYLAYER
100
AcDbText
10
11.27
20
7.27
30
0.00
1
1.47
7
GENERIC
40
0.18
50
45.00
0
ENDBLK
100
AcDbEntity
100
AcDbBlockEnd
0
BLOCK
100
AcDbEntity
8
0
100
AcDbBlockBegin
2
*D3
70
1
10
0.00
20
0.00
30
0.0
0
LINE
100
AcDbEntity
8
0
62
256
6
BYLAYER
39
0.00
100
AcDbLine
10
6.27
20
3.46
30
0.00
11
10.27
21
5.46
31
0.00
0
SOLID
100
AcDbEntity
8
0
62
256
6
BYLAYER
39
0.00
100
AcDbTrace
10
6.46
20
3.49
30
0.0
11
6.40
21
3.60
31
0.0
12
6.27
22
3.46
32
0.0
13
6.27
23
3.46
33
0.0
0
SOLID
100
AcDbEntity
8
0
62
256
6
BYLAYER
39
0.00
100
AcDbTrace
10
10.08
20
5.44
30
0.0
11
10.14
21
5.33
31
0.0
12
10.27
22
5.46
32
0.0
13
10.27
23
5.46
33
0.0
0
LINE
100
AcDbEntity
8
0
62
256
6
BYLAYER
39
0.00
100
AcDbLine
10
6.03
20
3.94
30
0.00
11
6.30
21
3.41
31
0.00
0
LINE
100
AcDbEntity
8
0
62
256
6
BYLAYER
39
0.00
100
AcDbLine
10
10.03
20
5.94
30
0.00
11
10.30
21
5.41
31
0.00
0
TEXT
100
AcDbEntity
8
0
62
256
6
BYLAYER
100
AcDbText
10
8.27
20
4.46
30
0.00
1
4.47
7
GENERIC
40
0.18
50
26.57
0
ENDBLK
100
AcDbEntity
100
AcDbBlockEnd
0
BLOCK
100
AcDbEntity
8
0
100
AcDbBlockBegin
2
*D4
70
1
10
0.00
20
0.00
30
0.0
0
LINE
100
AcDbEntity
8
0
62
256
6
BYLAYER
39
0.00
100
AcDbLine
10
10.00
20
6.00
30
0.00
11
10.40
21
6.69
31
0.00
0
SOLID
100
AcDbEntity
8
0
62
256
6
BYLAYER
39
0.00
100
AcDbTrace
10
10.14
20
6.12
30
0.0
11
10.04
21
6.19
31
0.0
12
10.00
22
6.00
32
0.0
13
10.00
23
6.00
33
0.0
0
SOLID
100
AcDbEntity
8
0
62
256
6
BYLAYER
39
0.00
100
AcDbTrace
10
10.26
20
6.57
30
0.0
11
10.36
21
6.51
31
0.0
12
10.40
22
6.69
32
0.0
13
10.40
23
6.69
33
0.0
0
TEXT
100
AcDbEntity
8
0
62
256
6
BYLAYER
100
AcDbText
10
10.20
20
6.35
30
0.00
1
0.80
7
GENERIC
40
0.18
50
60.00
0
ENDBLK
100
AcDbEntity
100
AcDbBlockEnd
0
ENDSEC
0
SECTION
2
ENTITIES
0
CIRCLE
100
AcDbEntity
8
0
62
256
6
BYLAYER
39
0.00
100
AcDbCircle
10
6.00
20
4.00
30
0.00
40
1.20
0
ARC
100
AcDbEntity
8
0
62
256
6
BYLAYER
39
0.00
100
AcDbCircle
10
10.00
20
6.00
30
0.00
40
1.20
100
AcDbArc
50
10.00
51
80.00
0
LINE
100
AcDbEntity
8
0
62
256
6
BYLAYER
39
0.00
100
AcDbLine
10
6.00
20
4.00
30
0.00
11
10.00
21
6.00
31
0.00
0
CIRCLE
100
AcDbEntity
8
0
62
256
6
BYLAYER
39
0.00
100
AcDbCircle
10
10.00
20
6.00
30
0.00
40
0.80
0
DIMENSION
100
AcDbEntity
8
0
100
AcDbDimension
2
*D1
10
5.79
20
2.82
30
0.00
11
6.00
21
4.00
31
0.00
70
3
3
GENERIC
100
AcDbDiameterDimension
15
6.21
25
5.18
35
0.00
40
0.00
0
DIMENSION
100
AcDbEntity
8
0
100
AcDbDimension
2
*D2
10
10.31
20
7.77
30
0.00
11
10.62
21
7.69
31
0.00
70
5
3
CUSTOM
100
AcDbAngular3PDimension
13
11.18
23
6.21
33
0.00
14
10.21
24
7.18
34
0.00
15
10.00
25
6.00
35
0.00
0
DIMENSION
100
AcDbEntity
8
0
100
AcDbDimension
2
*D3
10
6.27
20
3.46
30
0.00
11
8.27
21
4.46
31
0.00
70
33
3
CUSTOM
100
AcDbAlignedDimension
13
6.00
23
4.00
33
0.00
14
10.00
24
6.00
34
0.00
50
26.57
0
DIMENSION
100
AcDbEntity
8
0
100
AcDbDimension
2
*D4
10
10.00
20
6.00
30
0.00
11
10.20
21
6.35
31
0.00
70
4
3
GENERIC
100
AcDbRadialDimension
15
10.40
25
6.69
35
0.00
40
0.00
0
INSERT
100
AcDbEntity
8
0
100
AcDbBlockReference
2
Blk1
10
0.00
 20
0.00
30
0.0
41
1
42
1
50
0
0
ENDSEC
0
EOF
